HIERARCHY
ROOT Hips
{
	OFFSET 0.000000 0.000000 0.000000 
	CHANNELS 6 Xposition Yposition Zposition Zrotation Xrotation Yrotation
	JOINT Spine
	{
		OFFSET -0.000000 8.359812 0.000000 
		CHANNELS 3 Zrotation Xrotation Yrotation
		JOINT Spine1
		{
			OFFSET -0.000000 28.141317 0.000000 
			CHANNELS 3 Zrotation Xrotation Yrotation
			JOINT Neck
			{
				OFFSET -0.000000 28.025745 2.547795 
				CHANNELS 3 Zrotation Xrotation Yrotation
				JOINT Head
				{
					OFFSET -0.000000 14.272848 -2.038978 
					CHANNELS 3 Zrotation Xrotation Yrotation
					End Site
					{
						OFFSET -0.000000 25.487228 0.000000 
					}
				}
			}
			JOINT LeftShoulder
			{
				OFFSET 4.059574 26.120710 -0.180480 
				CHANNELS 3 Zrotation Xrotation Yrotation
				JOINT LeftArm
				{
					OFFSET 11.584161 0.000000 0.000000 
					CHANNELS 3 Zrotation Xrotation Yrotation
					JOINT LeftForeArm
					{
						OFFSET 30.766815 0.000000 0.000000 
						CHANNELS 3 Zrotation Xrotation Yrotation
						JOINT LeftHand
						{
							OFFSET 29.436810 0.000000 0.000000 
							CHANNELS 3 Zrotation Xrotation Yrotation
							End Site
							{
								OFFSET 15.292337 0.000000 0.000000 
							}
						}
					}
				}
			}
			JOINT RightShoulder
			{
				OFFSET -4.095355 26.120710 -0.180480 
				CHANNELS 3 Zrotation Xrotation Yrotation
				JOINT RightArm
				{
					OFFSET -11.584161 0.000000 0.000000 
					CHANNELS 3 Zrotation Xrotation Yrotation
					JOINT RightForeArm
					{
						OFFSET -30.766815 0.000000 0.000000 
						CHANNELS 3 Zrotation Xrotation Yrotation
						JOINT RightHand
						{
							OFFSET -29.436810 0.000000 0.000000 
							CHANNELS 3 Zrotation Xrotation Yrotation
							End Site
							{
								OFFSET -15.292337 0.000000 0.000000 
							}
						}
					}
				}
			}
		}
	}
	JOINT LeftUpLeg
	{
		OFFSET 10.194892 0.000000 0.000000 
		CHANNELS 3 Zrotation Xrotation Yrotation
		JOINT LeftLeg
		{
			OFFSET -0.000000 -32.520012 0.000000 
			CHANNELS 3 Zrotation Xrotation Yrotation
			JOINT LeftFoot
			{
				OFFSET -0.000000 -49.106510 0.000000 
				CHANNELS 3 Zrotation Xrotation Yrotation
				JOINT LeftToeBase
				{
					OFFSET -0.000000 -6.626679 15.292337 
					CHANNELS 3 Zrotation Xrotation Yrotation
					End Site
					{
						OFFSET -0.000000 0.000000 4.077957 
					}
				}
			}
		}
	}
	JOINT RightUpLeg
	{
		OFFSET -10.194892 0.000000 0.000000 
		CHANNELS 3 Zrotation Xrotation Yrotation
		JOINT RightLeg
		{
			OFFSET -0.000000 -32.520012 0.000000 
			CHANNELS 3 Zrotation Xrotation Yrotation
			JOINT RightFoot
			{
				OFFSET -0.000000 -49.106510 0.000000 
				CHANNELS 3 Zrotation Xrotation Yrotation
				JOINT RightToeBase
				{
					OFFSET -0.000000 -6.626679 15.292337 
					CHANNELS 3 Zrotation Xrotation Yrotation
					End Site
					{
						OFFSET -0.000000 0.000000 4.077957 
					}
				}
			}
		}
	}
}
MOTION
Frames: 10
Frame Time: 0.008333
13.836638 87.221207 50.302708 -5.884502 -2.690570 97.397820 4.339980 -7.155095 -1.593714 1.546565 6.997816 -1.959780 9.708631 20.755127 9.904170 -16.533430 -3.266572 7.921369 9.467706 -1.436842 -3.269350 -79.461540 41.952457 -0.976066 12.090549 0.335392 -33.011692 -4.012889 3.878001 1.485331 -12.250690 1.266098 -0.701103 62.796879 33.578075 4.166028 -5.578092 -9.704999 16.873003 -0.508244 -8.876245 -2.625741 12.639853 -5.053833 -4.337684 -4.921827 26.201645 -17.855492 -9.552258 -7.209328 32.761383 0.000000 0.000000 0.000000 -6.864021 -23.591814 -3.378381 3.717602 13.631670 -2.028034 2.934311 10.638702 -7.429813 0.000000 0.000000 0.000000 
13.287601 87.149170 50.105064 -5.871718 -2.776336 97.353600 4.227502 -7.346481 -1.810445 1.411783 7.295977 -2.171988 9.865078 20.692024 9.924880 -16.640747 -3.813679 7.847318 9.652369 -1.531800 -3.333997 -79.050034 41.939499 -0.919196 12.510592 1.243180 -32.563480 -3.379419 4.851259 1.912959 -12.434375 1.248184 -1.064849 62.468094 31.535971 3.860147 -5.661299 -9.084339 17.174095 -0.639633 -8.224869 -2.440997 12.690687 -4.385811 -4.453625 -4.455682 24.675797 -19.005424 -12.260739 -9.023232 32.257877 0.000000 0.000000 0.000000 -6.927268 -23.660456 -2.932130 3.786463 13.147433 -2.148693 3.092646 11.148990 -7.782834 0.000000 0.000000 0.000000 
12.703280 87.050545 49.940548 -5.831001 -2.897923 97.291275 4.131245 -7.374150 -2.185612 1.410702 7.498695 -2.544430 9.353793 20.419205 10.019731 -16.242937 -4.332448 7.897809 9.674163 -1.685846 -3.107533 -78.697578 41.900387 -0.472484 12.722914 1.482248 -32.242455 -3.559710 5.108327 1.978325 -12.905357 0.954168 -1.287758 62.364437 30.746277 3.567942 -6.301701 -8.915366 17.214731 -0.059979 -7.969591 -2.154828 12.944841 -3.823695 -4.769738 -4.598291 23.369711 -19.185394 -13.255579 -10.580369 31.506353 0.000000 0.000000 0.000000 -6.879775 -23.803240 -2.313266 3.796812 12.747950 -2.454066 3.268186 11.663737 -8.062204 0.000000 0.000000 0.000000 
12.065470 86.939095 49.759037 -5.831706 -3.010269 97.185303 4.096555 -7.331690 -2.422277 1.138190 7.480537 -2.759286 9.607421 20.428711 10.088824 -16.304392 -4.742236 7.913014 9.940369 -1.617264 -3.066569 -78.248917 41.784466 -0.377308 12.658153 1.436541 -31.644625 -2.973005 4.979894 2.078154 -12.802102 1.190550 -1.472251 61.619091 29.115704 3.559585 -6.563488 -8.419358 17.387184 -0.169469 -7.421220 -1.941961 13.171806 -3.325806 -5.043542 -4.964688 22.023401 -18.481182 -13.270759 -11.311340 30.822012 0.000000 0.000000 0.000000 -6.870968 -24.053772 -1.853642 3.785792 12.400689 -2.557290 3.483054 12.214120 -8.357203 0.000000 0.000000 0.000000 
11.369741 86.824188 49.571938 -5.938958 -3.095988 96.983643 3.911577 -7.501019 -2.635562 1.092169 7.840312 -2.966930 9.416228 19.918957 10.105981 -15.806283 -4.970493 7.937422 10.204798 -1.823892 -2.940058 -78.056938 41.702106 -0.075178 12.732266 1.016147 -31.023119 -3.257813 4.503195 2.045736 -13.073203 0.802699 -1.738721 61.232990 27.999006 3.240607 -6.736049 -8.403738 17.479950 -0.738384 -7.366155 -1.636896 13.430259 -3.072023 -5.170705 -5.287501 20.964676 -18.733524 -13.792913 -12.266548 30.573399 0.000000 0.000000 0.000000 -6.868974 -24.588589 -1.196948 3.770163 12.231864 -2.843921 3.725656 12.834995 -8.579065 0.000000 0.000000 0.000000 
10.677411 86.699471 49.386135 -6.052083 -3.137626 96.767502 3.988347 -7.437424 -3.008507 0.558552 7.666615 -3.305268 9.414442 20.207001 10.388933 -15.819125 -5.711623 8.157558 10.309135 -1.679193 -2.707817 -77.525482 41.159874 0.455315 12.505713 0.605421 -30.573187 -2.688387 3.982592 2.244000 -12.835395 0.976573 -1.558941 60.364166 26.706661 3.422647 -7.153410 -8.181675 17.407198 -0.423600 -7.090772 -1.076785 13.681164 -2.874853 -5.351699 -5.639540 20.071486 -19.324795 -14.160637 -13.664275 30.654911 0.000000 0.000000 0.000000 -6.899975 -25.038078 -0.630879 3.727283 11.909463 -3.188611 3.949521 13.495701 -8.646337 0.000000 0.000000 0.000000 
9.922807 86.572990 49.199184 -6.176108 -3.151762 96.457787 3.683970 -7.545668 -3.163160 0.590724 8.105993 -3.448072 9.254964 19.564026 10.359811 -15.330501 -5.922368 8.129457 10.617952 -1.915546 -2.581371 -77.142586 40.191559 0.724766 11.993997 0.389291 -30.204468 -2.289051 3.592425 2.219147 -13.131831 0.735282 -2.119133 59.718723 25.678652 3.559360 -7.346925 -7.976626 17.481768 -0.085051 -6.854328 -0.582349 13.930499 -2.750797 -5.492329 -6.238087 19.115896 -18.977928 -13.598142 -14.319943 30.516006 0.000000 0.000000 0.000000 -7.098316 -25.650137 0.144038 4.037122 11.755464 -3.304987 4.170973 14.120126 -9.330793 0.000000 0.000000 0.000000 
9.134654 86.459023 48.991589 -6.324110 -3.105159 96.094154 3.543191 -7.348746 -3.560007 0.407869 7.824798 -3.815519 8.863717 20.087673 10.688045 -15.210021 -7.061192 8.381433 10.401492 -1.709200 -2.260482 -76.427681 39.345921 1.385831 11.688351 -0.151589 -29.924448 -1.786790 2.945367 2.397620 -13.081901 0.870506 -1.722928 58.767555 23.890165 3.806064 -7.474773 -7.436028 17.523218 -0.349146 -6.289494 -0.315928 14.030125 -2.739734 -5.004737 -6.634775 18.312481 -18.582079 -12.790678 -14.728011 30.006262 0.000000 0.000000 0.000000 -7.283944 -26.312456 0.534998 4.099102 11.593092 -3.361266 4.492370 14.934999 -9.509206 0.000000 0.000000 0.000000 
8.336158 86.344780 48.810680 -6.462168 -3.074249 95.632607 3.272121 -7.378988 -3.626404 0.274324 8.184628 -3.857099 8.931502 19.549578 10.673323 -14.887442 -7.280045 8.359676 10.742328 -1.923623 -2.259013 -76.047462 38.113529 1.716897 11.289387 -0.449911 -29.384979 -1.732714 2.486001 2.250201 -13.236864 0.347938 -1.810371 58.319775 23.119032 3.386298 -7.811834 -7.722477 17.472958 -0.210951 -6.529457 0.116806 14.143491 -2.772199 -4.266216 -6.977551 17.596806 -17.632093 -12.104949 -14.884801 28.789217 0.000000 0.000000 0.000000 -7.391444 -26.952719 1.050216 4.200479 11.332942 -3.717779 4.740684 15.864753 -9.486383 0.000000 0.000000 0.000000 
7.520424 86.245728 48.613945 -6.618576 -2.992938 95.163780 3.095806 -7.179352 -3.971737 0.126164 8.050301 -4.174886 8.498046 19.810438 11.007256 -14.773146 -8.280174 8.614743 10.548453 -1.809922 -1.947474 -75.270737 36.886734 2.482046 10.796702 -1.022988 -29.186497 -1.242747 1.771151 2.373643 -13.382215 0.165883 -1.431683 57.615345 21.747375 3.521378 -7.791094 -7.604848 17.254101 -0.797450 -6.434081 0.638968 14.104079 -2.903945 -3.467326 -7.203168 17.046238 -17.040945 -11.378908 -15.155923 27.976870 0.000000 0.000000 0.000000 -7.627893 -27.567694 1.327840 4.369380 10.994227 -3.942526 4.992986 16.896961 -9.443131 0.000000 0.000000 0.000000 
